HIERARCHY
ROOT SpineBase
{
  OFFSET 0.000000 0.000000 0.000000
  CHANNELS 6 Xposition Yposition Zposition Zrotation Xrotation Yrotation
  JOINT SpineMid
  {
    OFFSET 0.000000 27.068081 0.000000
    CHANNELS 3 Zrotation Xrotation Yrotation
    JOINT SpineShoulder
    {
      OFFSET -0.226814 20.306974 -0.612901
      CHANNELS 3 Zrotation Xrotation Yrotation
      JOINT Neck
      {
        OFFSET -0.188988 6.756835 -0.468434
        CHANNELS 3 Zrotation Xrotation Yrotation
        JOINT Head
        {
          OFFSET -1.681303 10.472592 3.849234
          CHANNELS 3 Zrotation Xrotation Yrotation
          End Site
          {
            OFFSET 0 0 0
          }
        }
      }
      JOINT ShoulderLeft
      {
        OFFSET -3.766681 -7.153353 12.867654
        CHANNELS 3 Zrotation Xrotation Yrotation
        JOINT ElbowLeft
        {
          OFFSET -0.286340 -26.915522 0.688430
          CHANNELS 3 Zrotation Xrotation Yrotation
          JOINT WristLeft
          {
            OFFSET -6.796121 -20.713207 -1.445560
            CHANNELS 3 Zrotation Xrotation Yrotation
            JOINT HandLeft
            {
              OFFSET 0.034011 -1.707742 0.721078
              CHANNELS 3 Zrotation Xrotation Yrotation
              JOINT HandTipLeft
              {
                OFFSET 0.046950 -1.637171 0.417977
                CHANNELS 3 Zrotation Xrotation Yrotation
                End Site
                {
                  OFFSET 0 0 0
                }
              }
              JOINT ThumbLeft
              {
                OFFSET -3.545757 1.810796 -2.432251
                CHANNELS 3 Zrotation Xrotation Yrotation
                End Site
                {
                  OFFSET 0 0 0
                }
              }
            }
          }
        }
      }
      JOINT ShoulderRight
      {
        OFFSET 0.480022 -2.641278 -10.065837
        CHANNELS 3 Zrotation Xrotation Yrotation
        JOINT ElbowRight
        {
          OFFSET -10.681437 -20.645088 -3.866630
          CHANNELS 3 Zrotation Xrotation Yrotation
          JOINT WristRight
          {
            OFFSET -4.465703 -19.332984 7.276997
            CHANNELS 3 Zrotation Xrotation Yrotation
            JOINT HandRight
            {
              OFFSET 3.620041 -4.323474 4.362208
              CHANNELS 3 Zrotation Xrotation Yrotation
              JOINT HandTipRight
              {
                OFFSET -0.809132 -6.096964 0.641104
                CHANNELS 3 Zrotation Xrotation Yrotation
                End Site
                {
                  OFFSET 0 0 0
                }
              }
              JOINT ThumbRight
              {
                OFFSET 1.092583 -2.999346 -7.257814
                CHANNELS 3 Zrotation Xrotation Yrotation
                End Site
                {
                  OFFSET 0 0 0
                }
              }
            }
          }
        }
      }
    }
  }
  JOINT HipLeft
  {
    OFFSET -2.219668 0.632698 -0.928065
    CHANNELS 3 Zrotation Xrotation Yrotation
    JOINT KneeLeft
    {
      OFFSET 16.753670 -35.277906 1.875497
      CHANNELS 3 Zrotation Xrotation Yrotation
      JOINT AnkleLeft
      {
        OFFSET -6.813567 -29.861040 -9.685461
        CHANNELS 3 Zrotation Xrotation Yrotation
        JOINT FootLeft
        {
          OFFSET 1.529889 -4.762929 1.872854
          CHANNELS 3 Zrotation Xrotation Yrotation
          End Site
          {
            OFFSET 0 0 0
          }
        }
      }
    }
  }
  JOINT HipRight
  {
    OFFSET -0.322015 1.544734 -4.515288
    CHANNELS 3 Zrotation Xrotation Yrotation
    JOINT KneeRight
    {
      OFFSET 2.795934 -36.886354 -2.755622
      CHANNELS 3 Zrotation Xrotation Yrotation
      JOINT AnkleRight
      {
        OFFSET 6.132082 -26.763547 -2.316236
        CHANNELS 3 Zrotation Xrotation Yrotation
        JOINT FootRight
        {
          OFFSET -8.976982 -3.803132 -3.558691
          CHANNELS 3 Zrotation Xrotation Yrotation
          End Site
          {
            OFFSET 0 0 0
          }
        }
      }
    }
  }
}
MOTION
Frames: 6
Frame Time: 0.033333
136.332204 72.323344 291.594677 -0.000000 0.000000 62.121011 -0.000000 0.000000 -62.121011 -0.000000 0.000000 0.000000 -0.000000 0.000000 0.000000 0.000000 0.000000 0.000000 -0.000000 0.000000 0.000000 -0.000000 0.000000 0.000000 -0.000000 0.000000 0.000000 -0.000000 0.000000 0.000000 0.000000 0.000000 0.000000 0.000000 0.000000 0.000000 -0.000000 0.000000 0.000000 -0.000000 0.000000 0.000000 -0.000000 0.000000 0.000000 -0.000000 0.000000 0.000000 0.000000 0.000000 0.000000 0.000000 0.000000 0.000000 -0.000000 0.000000 -62.121011 -0.000000 0.000000 0.000000 -0.000000 0.000000 0.000000 0.000000 0.000000 0.000000 -0.000000 0.000000 -62.121011 -0.000000 0.000000 0.000000 -0.000000 0.000000 0.000000 0.000000 0.000000 0.000000
136.395387 72.579968 291.653605 -0.011328 -0.032891 62.162806 0.034375 0.005341 -62.162811 -0.000000 0.000000 0.000000 -0.000000 0.000000 0.000000 0.000000 0.000000 0.000000 -0.000000 0.000000 0.000000 -2.304191 -0.742942 0.387274 6.351328 12.306085 1.086594 4.210764 -9.748020 1.375773 0.000000 0.000000 0.000000 0.000000 0.000000 0.000000 -0.000000 0.000000 0.000000 -0.000000 0.000000 0.000000 0.904730 -0.875635 0.183951 0.593850 1.501549 -0.127301 0.000000 0.000000 0.000000 0.000000 0.000000 0.000000 0.034375 0.005341 -62.162811 0.644832 -0.759087 -0.031784 -11.565906 7.382931 -1.428251 0.000000 0.000000 0.000000 0.034375 0.005341 -62.162811 -0.000000 0.000000 0.000000 -1.764644 0.832998 -0.289578 0.000000 0.000000 0.000000
136.449282 72.805464 291.708623 -0.026827 -0.061995 62.144843 0.067347 0.005248 -62.144861 -0.000000 0.000000 0.000000 -0.000000 0.000000 0.000000 0.000000 0.000000 0.000000 -0.000000 0.000000 0.000000 -4.154688 -1.294993 0.660669 11.164396 21.097114 1.250614 6.950800 -16.643387 3.583675 0.000000 0.000000 0.000000 0.000000 0.000000 0.000000 -0.000000 0.000000 0.000000 -1.114256 -0.729223 -0.256877 2.515869 -0.506557 0.600717 1.183700 1.969445 -0.244244 0.000000 0.000000 0.000000 0.000000 0.000000 0.000000 0.380308 0.925688 -61.846321 1.815565 -2.049399 -0.341008 -21.087627 13.349167 -1.485270 0.000000 0.000000 0.000000 0.067347 0.005248 -62.144861 -0.621709 0.737551 0.226954 -1.921937 0.481140 -0.673508 0.000000 0.000000 0.000000
136.493887 72.999830 291.759731 -0.046525 -0.087183 62.064341 0.098820 -0.000260 -62.064377 -0.000000 0.000000 0.000000 -0.838781 -0.023343 0.304764 0.000000 0.000000 0.000000 -0.000000 0.000000 0.000000 -5.534369 -1.641041 0.833292 14.446008 26.430200 1.053050 9.026806 -20.637655 5.662384 0.000000 0.000000 0.000000 0.000000 0.000000 0.000000 -0.000000 0.000000 0.000000 -1.384074 -1.043817 -0.290679 2.866430 -0.054994 0.805600 1.698907 1.372976 -0.310442 0.000000 0.000000 0.000000 0.000000 0.000000 0.000000 0.488725 1.228464 -61.677976 2.431926 -2.666283 -0.442498 -28.069302 17.416795 -0.939472 0.000000 0.000000 0.000000 0.098820 -0.000260 -62.064377 -0.884473 1.021884 0.318894 -1.581426 0.171416 -0.781362 0.000000 0.000000 0.000000
136.529202 73.163067 291.806929 -0.070431 -0.108339 61.918595 0.128738 -0.011142 -61.918649 -0.000000 0.000000 0.000000 -1.053212 -0.060894 0.377416 0.000000 0.000000 0.000000 -0.000000 0.000000 0.000000 -6.434526 -1.772501 0.915588 16.173691 28.729365 0.872818 10.711388 -22.114771 7.182237 0.000000 0.000000 0.000000 0.000000 0.000000 0.000000 -0.000000 0.000000 0.000000 -1.461710 -1.326247 -0.258888 2.600968 0.873115 0.958673 2.112278 -0.287312 -0.316254 0.000000 0.000000 0.000000 0.000000 0.000000 0.000000 0.540810 1.420495 -61.485717 2.860812 -3.014107 -0.507319 -32.522189 19.723436 -0.418871 0.000000 0.000000 0.000000 0.128738 -0.011142 -61.918649 -1.112252 1.246879 0.394567 -0.410572 -0.494224 -0.729325 0.000000 0.000000 0.000000
136.555229 73.295176 291.850216 -0.098533 -0.125366 61.705008 0.157093 -0.027335 -61.705079 -0.000000 0.000000 0.000000 -1.235391 -0.113068 0.435628 0.000000 0.000000 0.000000 -0.000000 0.000000 0.000000 -6.852124 -1.685920 0.914002 16.327789 28.261598 0.876232 12.119073 -21.323936 7.963054 0.000000 0.000000 0.000000 0.000000 0.000000 0.000000 -0.000000 0.000000 0.000000 -1.346673 -1.576588 -0.159985 1.704223 2.298369 1.081166 2.444622 -2.981054 -0.285762 0.000000 0.000000 0.000000 0.000000 0.000000 0.000000 0.536385 1.499623 -61.267189 3.105567 -3.095143 -0.539501 -34.662181 20.559048 -0.250786 0.000000 0.000000 0.000000 0.157093 -0.027335 -61.705079 -1.303290 1.410917 0.452827 1.292497 -1.420810 -0.420752 0.000000 0.000000 0.000000
